<?xml version="1.0" encoding="UTF-8"?>
<svg id="Layer_1" data-name="Layer 1" xmlns="http://www.w3.org/2000/svg" viewBox="0 0 512 512">
  <defs>
    <style>
      .cls-1 {
        fill: none;
      }

      .cls-2, .cls-3 {
        fill: #6f42c1;
      }

      .cls-3 {
        isolation: isolate;
        opacity: .57;
      }
    </style>
  </defs>
  <rect class="cls-1" x="41.21" y="124.4" width="429.58" height="263.2"/>
  <g>
    <path class="cls-2" d="m290.12,31.42h0c15.93,9.9,20.81,30.85,10.9,46.78l-150.6,242.14c-9.91,15.93-30.85,20.81-46.78,10.91h0c-15.93-9.9-20.81-30.85-10.9-46.78L243.34,42.32c9.91-15.93,30.85-20.81,46.78-10.91Z"/>
    <path class="cls-2" d="m319.66,150.27h0c15.93,9.9,20.81,30.85,10.9,46.78l-150.6,242.14c-9.91,15.93-30.85,20.81-46.78,10.91h0c-15.93-9.9-20.81-30.85-10.9-46.78l150.59-242.14c9.91-15.93,30.85-20.81,46.78-10.91h0Z"/>
    <path class="cls-3" d="m422.27,146.53h0c15.93,9.9,20.81,30.85,10.9,46.78l-150.6,242.14c-9.91,15.93-30.85,20.81-46.78,10.91h0c-15.93-9.9-20.81-30.85-10.9-46.78l150.6-242.14c9.91-15.93,30.85-20.81,46.78-10.91Z"/>
  </g>
</svg>